<svg width="89" height="125" viewBox="0 0 89 125" fill="none" xmlns="http://www.w3.org/2000/svg">
<path d="M49.5132 55.2599L49.08 56.0644C52.5459 57.995 57.5385 62.2318 59.6015 64.1089C59.8491 70.396 59.3746 75.9282 59.1064 77.9084C55.69 86.3243 47.9453 91.2335 44.5 92.6361C37.7662 90.1114 31.8329 81.7657 29.7079 77.9084C29.2623 69.6411 29.5223 65.1815 29.7079 63.9851C32.5797 61.0644 37.7538 57.4876 39.9819 56.0644L39.4868 55.2599C35.0801 57.6361 24.1996 64.7896 19.3102 68.0693C20.1519 96.6337 24.1377 105.446 27.6655 113.181C15.8442 94.4307 15.2253 79.7649 14.2351 66.4604C17.9485 63.4901 32.3693 57.0957 39.0536 54.2698L38.4965 52.9703C30.3268 54.6535 15.1634 60.3135 8.60292 62.9332C9.79124 93.8738 20.1147 111.2 30.0793 125C22.0334 115.532 16.0299 109.53 8.7886 95.6064C4.7402 86.3964 2.78512 74.4431 0 59.5297C9.7541 55.7673 28.8621 52.7228 37.1968 51.6708L36.8255 50.6807C25.4869 49.5916 13.286 51.1345 8.60292 52.0421C7.48887 38.552 8.7886 31.8688 15.2872 22.7104C11.1776 31.7203 12.0482 42.8012 12.9972 47.2153C18.4932 46.7698 31.1727 47.731 36.8255 48.2673L37.1968 47.4629C30.6115 42.8094 24.3027 40.6559 21.9715 40.1609C19.7434 18.9975 23.2712 14.4183 31.0695 0.0618812C24.4348 15.2599 25.5818 31.1469 26.9847 37.1906L38.8679 45.5446L39.4868 44.3069L36.6398 40.9035C37.6796 38.6262 40.5389 36.8606 41.8387 36.2624C38.6698 40.3218 40.7246 42.0792 42.1481 42.4505H47.0375C50.3549 41.1634 48.6261 37.7888 47.347 36.2624C50.0207 37.302 52.0508 39.7896 52.7316 40.9035L48.9562 44.802L49.8846 46.1015L62.201 37.1287C65.3698 21.3366 60.468 6.25 57.4353 0C70.1231 17.7599 68.0807 31.4975 66.9047 40.1609C62.7951 40.9035 54.5058 45.4208 50.8748 47.5866L51.6794 48.6386C56.5812 47.302 69.8961 47.0503 75.9409 47.0916C78.3175 38.4282 75.2395 27.2277 73.589 22.7104C81.0655 30.8292 81.408 45.5239 80.459 51.8564C72.1407 50.1238 57.6829 50.3507 51.4937 50.6807L50.9986 51.6708C67.6474 53.4035 79.9638 56.6213 89 59.5297C85.1627 82.797 82.13 92.5743 77.5501 101.052C67.5484 116.646 60.7156 123.02 58.7969 125C70.5811 110.792 74.741 95.9777 76.2503 90.2228C79.1716 79.0842 80.2733 67.3886 80.459 62.9332C71.8932 59.1708 57.0021 54.7236 50.6273 52.9703L50.0083 54.2698C58.6236 57.5371 70.2675 63.8408 75.0125 66.5842C74.1213 78.4158 72.2893 87.2731 71.4847 90.2228C69.1576 100.619 63.5832 109.86 61.0869 113.181C65.4441 104.765 67.5649 93.8738 68.0807 89.4802C69.2195 80.6683 69.5867 71.5347 69.6279 68.0693C64.0825 63.9604 53.9075 57.8177 49.5132 55.2599Z" fill="#E5E9EF"/>
</svg>
